<svg width="1166" height="703" viewBox="0 0 1166 703" fill="none" xmlns="http://www.w3.org/2000/svg">
<rect width="1166" height="703" fill="#1C3661"/>
<path d="M407 253H720C742.091 253 760 270.909 760 293V451H447C424.909 451 407 433.091 407 411V253Z" fill="#607392"/>
<path d="M443.748 314.194C439.749 314.953 436.509 320.748 437.612 325.163C438.784 329.647 444.782 332.752 449.057 330.958C456.779 327.785 456.365 316.608 448.505 314.401C447.126 314.056 445.816 313.78 445.609 313.78C445.403 313.849 444.575 314.056 443.748 314.194Z" fill="#1C3661"/>
<path d="M673.405 317.643C672.853 319.092 669.199 327.854 665.407 337.167C661.615 346.481 656.996 357.795 655.065 362.279C652.376 368.764 648.102 379.32 644.379 388.702C644.103 389.392 646.309 389.599 654.031 389.599H663.959L666.579 382.355L669.13 375.111L686.366 375.249L703.603 375.456L706.429 382.493L709.187 389.599H719.46C725.114 389.599 729.595 389.392 729.457 389.047C729.25 388.771 722.907 374.766 715.323 357.864C707.739 340.962 700.293 324.473 698.708 321.093L695.95 315.091H685.263H674.508L673.405 317.643ZM691.33 346.205C694.295 353.449 696.915 359.934 697.053 360.693C697.398 361.934 696.915 362.003 685.884 362.003C676.921 362.003 674.439 361.796 674.715 361.107C682.161 340.962 685.263 333.028 685.539 333.028C685.746 333.028 688.297 338.961 691.33 346.205Z" fill="#1C3661"/>
<path d="M527.31 331.786C527.103 337.236 526.965 352.345 527.103 365.453L527.31 389.254L535.376 389.461L543.512 389.668L543.65 377.457L543.856 365.246L553.716 377.457L563.506 389.599H573.227H582.948L580.604 386.633C579.363 385.046 574.813 379.389 570.607 374.146C566.333 368.902 562.816 364.28 562.816 364.004C562.816 363.659 566.953 358.209 571.986 351.793C577.019 345.446 581.432 339.858 581.707 339.375C582.121 338.754 580.191 338.547 572.951 338.547H563.713L553.785 351.034L543.856 363.521L543.65 342.755L543.512 321.99H535.652H527.792L527.31 331.786Z" fill="#1C3661"/>
<path d="M438.025 363.728V389.599H445.609H453.193V363.728V337.857H445.609H438.025V363.728Z" fill="#1C3661"/>
<path d="M491.113 338.478C488.287 339.375 485.391 341.1 482.978 343.307C481.737 344.48 480.565 345.446 480.358 345.446C480.22 345.446 480.082 343.859 480.082 341.997V338.547H472.153H464.225V364.073V389.599H472.153H480.082V373.18V356.76L482.495 353.932C486.494 349.24 491.113 347.792 495.319 349.999C499.042 351.862 499.387 353.932 499.387 372.697V389.668L507.453 389.461L515.589 389.254L515.52 370.489L515.451 351.655L513.452 347.723C511.176 343.307 507.04 339.72 502.972 338.547C500.076 337.788 493.664 337.719 491.113 338.478Z" fill="#1C3661"/>
<path d="M587.637 356.139C587.637 366.212 587.981 375.18 588.395 377.181C589.36 381.803 592.67 386.012 597.289 388.495C600.392 390.22 601.839 390.496 606.183 390.565C612.388 390.634 616.87 388.909 620.455 385.046L622.799 382.631V386.081V389.599H630.728H638.656V364.073V338.547H630.728H622.799V355.243C622.799 371.179 622.73 372.007 621.282 374.077C618.179 378.699 612.94 380.7 608.734 378.975C604.528 377.181 604.184 375.594 604.184 355.794V338.547H595.91H587.637V356.139Z" fill="#1C3661"/>
</svg>
