<svg width="683" height="383" viewBox="0 0 683 383" fill="none" xmlns="http://www.w3.org/2000/svg">
<path d="M0 0H602.667C646.849 0 682.667 35.8172 682.667 80V382.667H80.0001C35.8173 382.667 0 346.849 0 302.667V0Z" fill="white"/>
<path d="M71.0667 118.267C63.3333 119.733 57.0667 130.933 59.2 139.467C61.4667 148.133 73.0667 154.133 81.3333 150.667C96.2667 144.533 95.4667 122.933 80.2667 118.667C77.6 118 75.0667 117.467 74.6667 117.467C74.2667 117.6 72.6667 118 71.0667 118.267Z" fill="#1C3661"/>
<path d="M515.2 124.933C514.133 127.733 507.067 144.667 499.733 162.667C492.4 180.667 483.467 202.533 479.733 211.2C474.533 223.733 466.267 244.133 459.067 262.267C458.533 263.6 462.8 264 477.733 264H496.933L502 250L506.933 236L540.267 236.267L573.6 236.667L579.067 250.267L584.4 264H604.267C615.2 264 623.867 263.6 623.6 262.933C623.2 262.4 610.933 235.333 596.267 202.667C581.6 170 567.2 138.133 564.133 131.6L558.8 120H538.133H517.333L515.2 124.933ZM549.867 180.133C555.6 194.133 560.667 206.667 560.933 208.133C561.6 210.533 560.667 210.667 539.333 210.667C522 210.667 517.2 210.267 517.733 208.933C532.133 170 538.133 154.667 538.667 154.667C539.067 154.667 544 166.133 549.867 180.133Z" fill="#1C3661"/>
<path d="M232.667 152.267C232.267 162.8 232 192 232.267 217.333L232.667 263.333L248.267 263.733L264 264.133L264.267 240.533L264.667 216.933L283.733 240.533L302.667 264H321.467H340.267L335.733 258.267C333.333 255.2 324.533 244.267 316.4 234.133C308.133 224 301.333 215.067 301.333 214.533C301.333 213.867 309.333 203.333 319.067 190.933C328.8 178.667 337.333 167.867 337.867 166.933C338.667 165.733 334.933 165.333 320.933 165.333H303.067L283.867 189.467L264.667 213.6L264.267 173.467L264 133.333H248.8H233.6L232.667 152.267Z" fill="#1C3661"/>
<path d="M60 214V264H74.6667H89.3333V214V164H74.6667H60V214Z" fill="#1C3661"/>
<path d="M162.667 165.2C157.2 166.933 151.6 170.267 146.933 174.533C144.533 176.8 142.267 178.667 141.867 178.667C141.6 178.667 141.333 175.6 141.333 172V165.333H126H110.667V214.667V264H126H141.333V232.267V200.533L146 195.067C153.733 186 162.667 183.2 170.8 187.467C178 191.067 178.667 195.067 178.667 231.333V264.133L194.267 263.733L210 263.333L209.867 227.067L209.733 190.667L205.867 183.067C201.467 174.533 193.467 167.6 185.6 165.333C180 163.867 167.6 163.733 162.667 165.2Z" fill="#1C3661"/>
<path d="M349.333 199.333C349.333 218.8 350 236.133 350.8 240C352.667 248.933 359.067 257.067 368 261.867C374 265.2 376.8 265.733 385.2 265.867C397.2 266 405.867 262.667 412.8 255.2L417.333 250.533V257.2V264H432.667H448V214.667V165.333H432.667H417.333V197.6C417.333 228.4 417.2 230 414.4 234C408.4 242.933 398.267 246.8 390.133 243.467C382 240 381.333 236.933 381.333 198.667V165.333H365.333H349.333V199.333Z" fill="#1C3661"/>
</svg>
