<svg width="105" height="105" viewBox="0 0 105 105" fill="none" xmlns="http://www.w3.org/2000/svg">
<circle cx="52.5" cy="52.5" r="52.5" fill="white"/>
<g clip-path="url(#clip0_194_442)">
<path d="M65.8358 65.2459C73.1195 57.9622 73.1195 46.153 65.8358 38.8693C58.5521 31.5857 46.7429 31.5857 39.4593 38.8693C32.1756 46.153 32.1756 57.9622 39.4593 65.2459C46.7429 72.5296 58.5521 72.5296 65.8358 65.2459Z" fill="white"/>
<path d="M52.5001 95.4684C46.7001 95.4684 41.0733 94.3318 35.7743 92.0907C30.6574 89.9262 26.0625 86.8288 22.1169 82.8832C18.1713 78.9376 15.0732 74.3427 12.9094 69.2258C10.6684 63.9277 9.53174 58.3001 9.53174 52.5001C9.53174 46.7001 10.6684 41.0725 12.9094 35.7743C15.074 30.6574 18.1713 26.0625 22.1169 22.1169C26.0625 18.1713 30.6574 15.0732 35.7743 12.9094C41.0725 10.6684 46.7001 9.53174 52.5001 9.53174C58.3001 9.53174 63.9277 10.6684 69.2258 12.9094C74.3427 15.074 78.9376 18.1713 82.8832 22.1169C86.8288 26.0625 89.927 30.6574 92.0907 35.7743C94.3318 41.0733 95.4684 46.7001 95.4684 52.5001C95.4684 58.3001 94.3318 63.9269 92.0907 69.2258C89.9262 74.3427 86.8288 78.9376 82.8832 82.8832C78.9376 86.8288 74.3427 89.927 69.2258 92.0907C63.9269 94.3318 58.3001 95.4684 52.5001 95.4684ZM52.5001 13.2373C30.8508 13.2373 13.2373 30.8508 13.2373 52.5001C13.2373 74.1494 30.8508 91.7628 52.5001 91.7628C74.1494 91.7628 91.7628 74.1494 91.7628 52.5001C91.7628 30.8508 74.1494 13.2373 52.5001 13.2373Z" fill="#044F60"/>
<path d="M52.5002 94.6626C46.8089 94.6626 41.2868 93.5478 36.0878 91.3486C31.0668 89.2251 26.5581 86.185 22.6866 82.3135C18.8151 78.442 15.7749 73.9325 13.6515 68.9123C11.4523 63.7132 10.3374 58.1919 10.3374 52.4999C10.3374 46.8078 11.4523 41.2865 13.6515 36.0883C15.7749 31.0672 18.8151 26.5586 22.6866 22.6871C26.5581 18.8156 31.0676 15.7754 36.0878 13.6519C41.2868 11.4528 46.8081 10.3379 52.5002 10.3379C58.1922 10.3379 63.7135 11.4528 68.9126 13.6519C73.9336 15.7754 78.4423 18.8156 82.3146 22.6871C86.1869 26.5586 89.2263 31.0681 91.3497 36.0883C93.5489 41.2873 94.6638 46.8086 94.6638 52.4999C94.6638 58.1911 93.5489 63.7132 91.3497 68.9123C89.2263 73.9333 86.1861 78.442 82.3146 82.3135C78.4431 86.185 73.9336 89.2251 68.9126 91.3486C63.7135 93.5478 58.1922 94.6626 52.5002 94.6626ZM52.5002 12.4315C30.4062 12.4315 12.4318 30.4059 12.4318 52.4999C12.4318 74.5938 30.4062 92.5682 52.5002 92.5682C74.5942 92.5682 92.5685 74.5938 92.5685 52.4999C92.5685 30.4059 74.5942 12.4315 52.5002 12.4315Z" fill="#044F60"/>
<path d="M94.421 50.6475H76.967V54.353H94.421V50.6475Z" fill="#044F60"/>
<path d="M93.6156 51.4531H77.7727V53.5476H93.6156V51.4531Z" fill="#044F60"/>
<path d="M27.6607 50.6475H10.5789V54.353H27.6607V50.6475Z" fill="#044F60"/>
<path d="M26.8552 51.4531H11.3845V53.5476H26.8552V51.4531Z" fill="#044F60"/>
<path d="M87.7383 34.6394C77.7792 31.0538 66.4869 29.2365 54.174 29.2365C49.3761 29.2365 44.4582 29.5168 39.558 30.0695C26.1866 31.5766 16.8067 34.6257 16.714 34.6563L15.9496 34.9076L15.6974 34.1431L14.7896 31.389L15.5548 31.1368C15.6507 31.1054 25.3182 27.9508 39.0916 26.3929C44.2246 25.8121 49.3382 25.5181 54.29 25.5181C57.1086 25.5181 59.9176 25.6139 62.6387 25.8032C72.0887 26.4598 80.9563 28.2594 88.9949 31.1537L89.7529 31.4268L88.4979 34.9133L87.7399 34.6402L87.7383 34.6394Z" fill="#044F60"/>
<path d="M16.4619 33.891L15.8062 31.9021C15.9012 31.8707 25.4913 28.7419 39.181 27.1936C47.222 26.2842 55.0955 26.0868 62.5823 26.6064C71.9582 27.2573 80.7525 29.0424 88.721 31.911L88.0113 33.8813C70.3785 27.5336 51.8805 27.8687 39.4677 29.2679C25.9795 30.7888 16.5553 33.8596 16.4619 33.8902V33.891Z" fill="#044F60"/>
<path d="M50.2106 80.3377C47.3927 80.3377 44.5838 80.2419 41.8618 80.0526C33.0111 79.4379 24.6559 77.8164 17.0265 75.2329L17.5429 73.7072C25.041 76.2463 33.2601 77.8405 41.9729 78.4455C44.6579 78.6316 47.429 78.7266 50.2098 78.7266C55.1011 78.7266 60.1535 78.4358 65.2277 77.8615C76.6006 76.575 85.1427 74.1865 87.6713 73.4269L87.5199 72.9677C84.9969 73.7257 76.4838 76.1062 65.1214 77.387C60.8213 77.8719 55.7939 78.2296 50.3266 78.2296C40.129 78.2296 28.3977 76.9858 16.9741 73.0007L16.8549 73.331L15.3389 72.7857L16.0018 70.9434L16.7599 71.2164C34.2469 77.5119 52.6127 77.1767 64.9401 75.7872C78.3124 74.28 87.6906 71.2309 87.7841 71.2003L88.5486 70.949L89.7094 74.4669L88.9441 74.719C88.8482 74.7504 79.1816 77.905 65.4074 79.4629C60.2744 80.0437 55.1607 80.3377 50.2089 80.3377H50.2106Z" fill="#044F60"/>
<path d="M16.0977 73.059L16.4884 71.9747C34.1212 78.3225 52.6191 77.9873 65.0319 76.5881C78.5202 75.0672 87.9443 71.9964 88.0378 71.9658L88.6935 73.9547C88.5985 73.9862 79.0083 77.1149 65.3187 78.6632C60.1962 79.2424 55.1405 79.5332 50.2105 79.5332C47.4023 79.5332 44.6345 79.439 41.9173 79.2505C33.1287 78.6398 24.8508 77.0336 17.285 74.4719" fill="#044F60"/>
<path d="M52.5 95.4022C48.6841 95.4022 44.9987 94.2084 41.5461 91.8546C38.2997 89.6401 35.3981 86.4944 32.9234 82.5029C27.9354 74.4602 25.1885 63.8051 25.1885 52.4999C25.1885 41.1948 27.9354 30.5397 32.9234 22.497C35.3989 18.5063 38.2997 15.3598 41.5461 13.1453C44.9979 10.7907 48.6833 9.59766 52.5 9.59766C56.3168 9.59766 60.0014 10.7915 63.454 13.1453C66.7004 15.3598 69.602 18.5055 72.0766 22.497C77.0646 30.5397 79.8116 41.1948 79.8116 52.4999C79.8116 63.8051 77.0646 74.4602 72.0766 82.5029C69.6012 86.4936 66.7004 89.6401 63.454 91.8546C60.0022 94.2092 56.3168 95.4022 52.5 95.4022ZM52.5 13.3024C46.3649 13.3024 40.5303 17.2609 36.0723 24.4497C31.4436 31.914 28.894 41.8755 28.894 52.4999C28.894 63.1244 31.4436 73.0859 36.0723 80.5502C40.5303 87.7382 46.3649 91.6975 52.5 91.6975C58.6351 91.6975 64.4698 87.739 68.9277 80.5502C73.5564 73.0859 76.106 63.1244 76.106 52.4999C76.106 41.8755 73.5564 31.914 68.9277 24.4497C64.4698 17.2617 58.6359 13.3024 52.5 13.3024Z" fill="#044F60"/>
<path d="M52.5001 94.5964C48.8486 94.5964 45.3162 93.4501 42.0005 91.1881C38.8476 89.0381 36.0241 85.9721 33.6083 82.0773C28.6984 74.1603 25.9941 63.6558 25.9941 52.4989C25.9941 41.3419 28.6984 30.8375 33.6083 22.9205C36.0241 19.0256 38.8476 15.9605 42.0005 13.8097C45.3162 11.5485 48.8494 10.4014 52.5001 10.4014C56.1509 10.4014 59.6841 11.5477 62.9997 13.8097C66.1527 15.9597 68.9762 19.0256 71.392 22.9205C76.3019 30.8375 79.0061 41.3419 79.0061 52.4989C79.0061 63.6558 76.3019 74.1603 71.392 82.0773C68.9762 85.9721 66.1527 89.0373 62.9997 91.1881C59.6841 93.4493 56.1509 94.5964 52.5001 94.5964ZM52.5001 12.4966C46.0758 12.4966 39.9987 16.5905 35.3877 24.0249C30.6809 31.6149 28.0886 41.727 28.0886 52.4997C28.0886 63.2724 30.6809 73.3845 35.3877 80.9745C39.9979 88.4081 46.075 92.5028 52.5001 92.5028C58.9252 92.5028 65.0016 88.409 69.6126 80.9745C74.3194 73.3845 76.9117 63.2724 76.9117 52.4997C76.9117 41.727 74.3194 31.6149 69.6126 24.0249C65.0024 16.5913 58.9252 12.4966 52.5001 12.4966Z" fill="#044F60"/>
<path d="M52.4999 72.3616C47.1945 72.3616 42.2073 70.2953 38.4558 66.5447C34.7044 62.7932 32.6389 57.806 32.6389 52.5006C32.6389 47.1952 34.7052 42.208 38.4558 38.4566C42.2073 34.7051 47.1945 32.6396 52.4999 32.6396C57.8053 32.6396 62.7925 34.7059 66.5439 38.4566C70.2954 42.208 72.3609 47.1952 72.3609 52.5006C72.3609 57.806 70.2946 62.7932 66.5439 66.5447C62.7925 70.2962 57.8053 72.3616 52.4999 72.3616ZM52.4999 36.3444C43.5912 36.3444 36.3437 43.592 36.3437 52.5006C36.3437 61.4093 43.5912 68.6568 52.4999 68.6568C61.4085 68.6568 68.6561 61.4093 68.6561 52.5006C68.6561 43.592 61.4085 36.3444 52.4999 36.3444Z" fill="#044F60"/>
<path d="M52.4998 71.5558C47.4095 71.5558 42.6245 69.5733 39.0253 65.9741C35.4261 62.3749 33.4436 57.5899 33.4436 52.4996C33.4436 47.4093 35.4261 42.6243 39.0253 39.0251C42.6245 35.4258 47.4095 33.4434 52.4998 33.4434C57.5901 33.4434 62.3751 35.4258 65.9744 39.0251C69.5736 42.6243 71.556 47.4093 71.556 52.4996C71.556 57.5899 69.5736 62.3749 65.9744 65.9741C62.3751 69.5733 57.5901 71.5558 52.4998 71.5558ZM52.4998 35.5386C43.1473 35.5386 35.538 43.1471 35.538 52.5004C35.538 61.8537 43.1473 69.4622 52.4998 69.4622C61.8523 69.4622 69.4616 61.8529 69.4616 52.5004C69.4616 43.1479 61.8523 35.5386 52.4998 35.5386Z" fill="#044F60"/>
<path d="M66.0914 53.5471H63.3727C62.7943 53.5471 62.3254 53.0782 62.3254 52.4999C62.3254 51.9215 62.7943 51.4526 63.3727 51.4526H66.0914C66.6698 51.4526 67.1386 51.9215 67.1386 52.4999C67.1386 53.0782 66.6698 53.5471 66.0914 53.5471Z" fill="#044F60"/>
<path d="M41.6273 53.5471H38.9086C38.3302 53.5471 37.8613 53.0782 37.8613 52.4999C37.8613 51.9215 38.3302 51.4526 38.9086 51.4526H41.6273C42.2057 51.4526 42.6745 51.9215 42.6745 52.4999C42.6745 53.0782 42.2057 53.5471 41.6273 53.5471Z" fill="#044F60"/>
<path d="M51.4529 66.0912V63.3724C51.4529 62.794 51.9217 62.3252 52.5001 62.3252C53.0785 62.3252 53.5473 62.794 53.5473 63.3724V66.0912C53.5473 66.6696 53.0785 67.1384 52.5001 67.1384C51.9217 67.1384 51.4529 66.6696 51.4529 66.0912Z" fill="#044F60"/>
<path d="M51.4529 41.6273V38.9086C51.4529 38.3302 51.9217 37.8613 52.5001 37.8613C53.0785 37.8613 53.5473 38.3302 53.5473 38.9086V41.6273C53.5473 42.2057 53.0785 42.6745 52.5001 42.6745C51.9217 42.6745 51.4529 42.2057 51.4529 41.6273Z" fill="#044F60"/>
<path d="M47.7004 44.8112C47.3022 44.3328 46.5917 44.2678 46.1136 44.6659C45.6354 45.064 45.5706 45.7745 45.9689 46.2528L51.6891 53.1233C52.0873 53.6016 52.7978 53.6667 53.276 53.2686C53.7541 52.8705 53.8189 52.16 53.4207 51.6817L47.7004 44.8112Z" fill="#044F60"/>
<path d="M51.8199 51.5273C51.3416 51.9256 51.2766 52.636 51.6747 53.1142C52.0728 53.5924 52.7833 53.6571 53.2616 53.2589L56.4975 50.5648C56.9758 50.1665 57.0409 49.4561 56.6428 48.9779C56.2447 48.4997 55.5342 48.435 55.0558 48.8332L51.8199 51.5273Z" fill="#044F60"/>
</g>
<defs>
<clipPath id="clip0_194_442">
<rect width="87" height="87" fill="white" transform="translate(9 9)"/>
</clipPath>
</defs>
</svg>
