<?xml version="1.0" encoding="UTF-8"?>
<svg id="Capa_1" data-name="Capa 1" xmlns="http://www.w3.org/2000/svg" viewBox="0 0 1080 1080">
  <defs>
    <style>
      .cls-1 {
        fill: #fff;
      }

      .cls-1, .cls-2 {
        stroke-width: 0px;
      }

      .cls-2 {
        fill: #044f60;
      }
    </style>
  </defs>
  <circle class="cls-1" cx="541.83" cy="534.5" r="231.53" transform="translate(-219.25 539.69) rotate(-45)"/>
  <g>
    <path class="cls-2" d="m540,1073.4c-72,0-141.85-14.11-207.63-41.93-63.52-26.87-120.56-65.32-169.54-114.3-48.98-48.98-87.44-106.02-114.3-169.54-27.82-65.77-41.93-135.63-41.93-207.63s14.11-141.86,41.93-207.63c26.87-63.52,65.32-120.56,114.3-169.54,48.98-48.98,106.02-87.44,169.54-114.3C398.14,20.71,468,6.6,540,6.6s141.86,14.11,207.63,41.93c63.52,26.87,120.56,65.32,169.54,114.3,48.98,48.98,87.44,106.02,114.3,169.54,27.82,65.78,41.93,135.63,41.93,207.63s-14.11,141.85-41.93,207.63c-26.87,63.52-65.32,120.56-114.3,169.54-48.98,48.98-106.02,87.44-169.54,114.3-65.78,27.82-135.63,41.93-207.63,41.93Zm0-1020.8c-268.75,0-487.4,218.65-487.4,487.4s218.65,487.4,487.4,487.4,487.4-218.65,487.4-487.4S808.75,52.6,540,52.6Z"/>
    <path class="cls-2" d="m540,1063.4c-70.65,0-139.2-13.84-203.74-41.14-62.33-26.36-118.3-64.1-166.36-112.16-48.06-48.06-85.8-104.04-112.16-166.36-27.3-64.54-41.14-133.08-41.14-203.74s13.84-139.2,41.14-203.73c26.36-62.33,64.1-118.3,112.16-166.36,48.06-48.06,104.04-85.8,166.36-112.16,64.54-27.3,133.08-41.14,203.74-41.14s139.2,13.84,203.74,41.14c62.33,26.36,118.3,64.1,166.37,112.16s85.8,104.04,112.16,166.36c27.3,64.54,41.14,133.08,41.14,203.73s-13.84,139.2-41.14,203.74c-26.36,62.33-64.1,118.3-112.16,166.36-48.06,48.06-104.04,85.8-166.37,112.16-64.54,27.3-133.08,41.14-203.74,41.14Zm0-1020.8c-274.27,0-497.4,223.13-497.4,497.4s223.13,497.4,497.4,497.4,497.4-223.13,497.4-497.4S814.27,42.6,540,42.6Z"/>
  </g>
  <g>
    <rect class="cls-2" x="843.73" y="517" width="216.67" height="46"/>
    <rect class="cls-2" x="853.73" y="527" width="196.67" height="26"/>
  </g>
  <g>
    <rect class="cls-2" x="19.6" y="517" width="212.05" height="46"/>
    <rect class="cls-2" x="29.6" y="527" width="192.05" height="26"/>
  </g>
  <g>
    <path class="cls-2" d="m977.44,318.28c-123.63-44.51-263.81-67.07-416.66-67.07-59.56,0-120.61,3.48-181.44,10.34-165.99,18.71-282.43,56.56-283.58,56.94l-9.49,3.12-3.13-9.49-11.27-34.19,9.5-3.13c1.19-.39,121.2-39.55,292.18-58.89,63.72-7.21,127.2-10.86,188.67-10.86,34.99,0,69.86,1.19,103.64,3.54,117.31,8.15,227.39,30.49,327.18,66.42l9.41,3.39-15.58,43.28-9.41-3.39Z"/>
    <path class="cls-2" d="m92.63,308.99l-8.14-24.69c1.18-.39,120.23-39.23,290.17-58.45,99.82-11.29,197.56-13.74,290.5-7.29,116.39,8.08,225.56,30.24,324.48,65.85l-8.81,24.46c-218.89-78.8-448.52-74.64-602.61-57.27-167.44,18.88-284.43,57-285.59,57.38Z"/>
  </g>
  <g>
    <path class="cls-2" d="m511.58,885.57c-34.98,0-69.85-1.19-103.64-3.54-109.87-7.63-213.59-27.76-308.3-59.83l6.41-18.94c93.08,31.52,195.11,51.31,303.27,58.82,33.33,2.31,67.73,3.49,102.25,3.49,60.72,0,123.44-3.61,186.43-10.74,141.18-15.97,247.22-45.62,278.61-55.05l-1.88-5.7c-31.32,9.41-137,38.96-278.05,54.86-53.38,6.02-115.79,10.46-183.66,10.46-126.59,0-272.22-15.44-414.03-64.91l-1.48,4.1-18.82-6.77,8.23-22.87,9.41,3.39c217.08,78.15,445.07,73.99,598.1,56.74,166-18.71,282.42-56.56,283.58-56.94l9.49-3.12,14.41,43.67-9.5,3.13c-1.19.39-121.19,39.55-292.18,58.89-63.72,7.21-127.2,10.86-188.67,10.86Z"/>
    <path class="cls-2" d="m88.11,795.21l4.85-13.46c218.89,78.8,448.52,74.64,602.61,57.27,167.44-18.88,284.43-57,285.59-57.38l8.14,24.69c-1.18.39-120.23,39.23-290.17,58.45-63.59,7.19-126.35,10.8-187.55,10.8-34.86,0-69.22-1.17-102.95-3.51-109.1-7.58-211.86-27.52-305.78-59.32"/>
  </g>
  <g>
    <path class="cls-2" d="m540,1072.58c-47.37,0-93.12-14.82-135.98-44.04-40.3-27.49-76.32-66.54-107.04-116.09-61.92-99.84-96.02-232.11-96.02-372.45s34.1-272.61,96.02-372.45c30.73-49.54,66.74-88.6,107.04-116.09,42.85-29.23,88.6-44.04,135.98-44.04s93.12,14.82,135.98,44.04c40.3,27.49,76.32,66.54,107.04,116.09,61.92,99.84,96.02,232.11,96.02,372.45s-34.1,272.61-96.02,372.45c-30.73,49.54-66.74,88.6-107.04,116.09-42.85,29.23-88.6,44.04-135.98,44.04Zm0-1019.17c-76.16,0-148.59,49.14-203.93,138.38-57.46,92.66-89.11,216.32-89.11,348.21s31.65,255.55,89.11,348.21c55.34,89.23,127.77,138.38,203.93,138.38s148.59-49.14,203.93-138.38c57.46-92.66,89.11-216.32,89.11-348.21s-31.65-255.55-89.11-348.21c-55.34-89.23-127.76-138.38-203.93-138.38Z"/>
    <path class="cls-2" d="m540,1062.58c-45.33,0-89.18-14.23-130.34-42.31-39.14-26.69-74.19-64.75-104.18-113.1-60.95-98.28-94.52-228.68-94.52-367.18s33.57-268.9,94.52-367.18c29.99-48.35,65.04-86.4,104.18-113.1,41.16-28.07,85.02-42.31,130.34-42.31s89.18,14.23,130.34,42.31c39.14,26.69,74.19,64.75,104.18,113.1,60.95,98.28,94.52,228.68,94.52,367.18s-33.57,268.9-94.52,367.18c-29.99,48.35-65.04,86.4-104.18,113.1-41.16,28.07-85.02,42.31-130.34,42.31Zm0-1019.17c-79.75,0-155.19,50.82-212.43,143.11-58.43,94.22-90.61,219.75-90.61,353.48s32.18,259.26,90.61,353.48c57.23,92.28,132.67,143.11,212.43,143.11s155.19-50.82,212.43-143.11c58.43-94.22,90.61-219.75,90.61-353.48s-32.18-259.26-90.61-353.48c-57.23-92.28-132.67-143.11-212.43-143.11Z"/>
  </g>
  <g>
    <path class="cls-2" d="m540,786.56c-65.86,0-127.77-25.65-174.34-72.21-46.57-46.57-72.21-108.48-72.21-174.34s25.65-127.77,72.21-174.34c46.57-46.57,108.48-72.21,174.34-72.21s127.77,25.65,174.34,72.21c46.57,46.57,72.21,108.48,72.21,174.34s-25.65,127.77-72.21,174.34c-46.57,46.57-108.48,72.21-174.34,72.21Zm0-447.11c-110.59,0-200.56,89.97-200.56,200.56s89.97,200.56,200.56,200.56,200.56-89.97,200.56-200.56-89.97-200.56-200.56-200.56Z"/>
    <path class="cls-2" d="m540,776.56c-63.19,0-122.59-24.61-167.27-69.29-44.68-44.68-69.29-104.08-69.29-167.27s24.61-122.59,69.29-167.27,104.08-69.29,167.27-69.29,122.59,24.61,167.27,69.29c44.68,44.68,69.29,104.08,69.29,167.27s-24.61,122.59-69.29,167.27c-44.68,44.68-104.08,69.29-167.27,69.29Zm0-447.11c-116.1,0-210.56,94.45-210.56,210.56s94.46,210.56,210.56,210.56,210.56-94.46,210.56-210.56-94.46-210.56-210.56-210.56Z"/>
  </g>
  <path class="cls-2" d="m708.72,553h-33.75c-7.18,0-13-5.82-13-13s5.82-13,13-13h33.75c7.18,0,13,5.82,13,13s-5.82,13-13,13Z"/>
  <path class="cls-2" d="m405.03,553h-33.75c-7.18,0-13-5.82-13-13s5.82-13,13-13h33.75c7.18,0,13,5.82,13,13s-5.82,13-13,13Z"/>
  <path class="cls-2" d="m527,708.72v-33.75c0-7.18,5.82-13,13-13s13,5.82,13,13v33.75c0,7.18-5.82,13-13,13s-13-5.82-13-13Z"/>
  <path class="cls-2" d="m527,405.03v-33.75c0-7.18,5.82-13,13-13s13,5.82,13,13v33.75c0,7.18-5.82,13-13,13s-13-5.82-13-13Z"/>
  <g>
    <rect class="cls-2" x="491.19" y="426.65" width="27.97" height="138.96" rx="13.99" ry="13.99" transform="translate(-200.5 438.1) rotate(-39.78)"/>
    <rect class="cls-2" x="546.59" y="481.82" width="27.97" height="80.25" rx="13.99" ry="13.99" transform="translate(518.15 1286.72) rotate(-129.78)"/>
  </g>
</svg>