<svg width="62" height="62" viewBox="0 0 62 62" fill="none" xmlns="http://www.w3.org/2000/svg">
<circle cx="31" cy="31" r="31" fill="#FFFEFE"/>
<g clip-path="url(#clip0_759_328)">
<path opacity="0.935" fill-rule="evenodd" clip-rule="evenodd" d="M28.931 4.10333C40.0565 3.81928 48.5047 8.37101 54.2759 17.7585C58.9159 26.6911 58.8125 35.5533 53.9655 44.3447C48.3299 53.5456 39.9849 57.9593 28.931 57.5861C19.5187 56.5907 12.3807 52.0733 7.51725 44.0344C2.9656 35.2764 2.9656 26.5179 7.51725 17.7585C12.4177 9.72387 19.5557 5.17215 28.931 4.10333ZM30.1724 6.58609C33.8318 6.67448 36.8318 8.12276 39.1724 10.9309C40.0679 12.0318 40.8611 13.2042 41.5517 14.4482C41.3794 14.5171 41.2068 14.5861 41.0345 14.6551C38.0142 14.256 34.9797 14.0491 31.931 14.0344C27.9499 14.1389 23.9844 14.3803 20.0345 14.7585C21.6096 11.5972 23.9544 9.18339 27.069 7.51713C28.0997 7.10549 29.1342 6.79514 30.1724 6.58609ZM40.5172 8.86196C40.5297 8.74959 40.5986 8.68063 40.7241 8.65506C44.5424 10.5066 47.7837 13.0928 50.4483 16.4137C48.519 16.0351 46.588 15.5869 44.6552 15.0689C43.6693 12.7099 42.2899 10.641 40.5172 8.86196ZM21.069 8.86196C19.4077 10.836 18.0284 13.0085 16.931 15.3792C15.065 15.7802 13.203 16.125 11.3448 16.4137C13.9691 13.0609 17.2105 10.5437 21.069 8.86196ZM28.7241 16.5171C31.9013 16.4806 35.0736 16.584 38.2414 16.8275C39.855 16.917 41.4412 17.1584 43 17.5516C46.3048 26.5845 46.3048 35.6191 43 44.6551C35.0196 45.859 27.0197 45.9968 19 45.0689C15.5149 35.9497 15.446 26.8119 18.7931 17.6551C22.1184 17.1309 25.4287 16.7516 28.7241 16.5171ZM45.8966 17.9654C48.057 18.4539 50.1948 19.0401 52.3104 19.724C53.962 22.7146 54.9276 25.9214 55.2069 29.3447C52.797 29.5514 50.3833 29.6203 47.9655 29.5516C47.8112 25.5902 47.1214 21.7281 45.8966 17.9654ZM15.2759 18.1723C15.4935 18.1414 15.7004 18.1759 15.8966 18.2757C14.6392 21.9228 13.9495 25.6814 13.8276 29.5516C11.4099 29.6203 8.99608 29.5514 6.58622 29.3447C6.90262 26.0104 7.79919 22.8379 9.27587 19.8275C11.2724 19.1737 13.2724 18.622 15.2759 18.1723ZM6.58622 32.0344C9.00002 32.0344 11.4138 32.0344 13.8276 32.0344C13.9399 36.2257 14.6985 40.2945 16.1035 44.2413C14.0858 44.0439 12.0858 43.5958 10.1035 42.8964C9.79311 42.7241 9.55173 42.4826 9.37932 42.1723C7.77062 38.9789 6.83958 35.5994 6.58622 32.0344ZM47.9655 32.0344C50.3794 32.0344 52.793 32.0344 55.2069 32.0344C54.9506 35.6803 53.985 39.1284 52.3104 42.3792C50.241 43.1553 48.1031 43.7071 45.8966 44.0344C47.122 40.1304 47.8116 36.1303 47.9655 32.0344ZM49.8276 45.8964C47.4477 49.1056 44.4133 51.4506 40.7241 52.9309C42.2047 51.1702 43.4461 49.2393 44.4483 47.1378C46.2059 46.5931 47.999 46.1793 49.8276 45.8964ZM12.1724 46.1033C13.8715 46.5798 15.5957 46.9591 17.3448 47.2413C18.3992 49.3514 19.7096 51.2824 21.2759 53.0344C17.5685 51.6409 14.534 49.3307 12.1724 46.1033ZM41.1379 47.3447C41.2908 47.3176 41.4288 47.3522 41.5517 47.4482C39.9655 50.4136 37.6896 52.6895 34.7241 54.2758C31.3732 55.6487 28.2009 55.3038 25.2069 53.2413C23.2779 51.8273 21.7607 50.0687 20.6552 47.9654C20.8276 47.8965 21 47.8274 21.1724 47.7585C25.8177 48.1721 30.4728 48.2755 35.1379 48.0689C37.1831 47.953 39.1832 47.7115 41.1379 47.3447Z" fill="#034E60"/>
<path opacity="0.956" fill-rule="evenodd" clip-rule="evenodd" d="M30.5863 18.3789C38.3515 18.9841 42.6275 23.1566 43.4139 30.8961C42.7048 38.4673 38.5669 42.6398 31.0001 43.4134C23.3236 42.7368 19.1168 38.5646 18.3794 30.8961C19.0972 23.4087 23.1662 19.2363 30.5863 18.3789Z" fill="#065061"/>
<path fill-rule="evenodd" clip-rule="evenodd" d="M29.138 20.8624C35.2516 20.5322 39.1483 23.2909 40.8276 29.1383C41.2872 34.9475 38.7698 38.7751 33.2759 40.621C27.2898 41.5283 23.2552 39.149 21.1725 33.4831C20.2714 27.0058 22.9265 22.799 29.138 20.8624Z" fill="#FCFDFD"/>
<path fill-rule="evenodd" clip-rule="evenodd" d="M30.3792 21.8964C30.7862 21.8469 31.1656 21.9158 31.5172 22.1033C31.6552 22.8619 31.6552 23.6205 31.5172 24.3791C31.1034 24.9309 30.6896 24.9309 30.2758 24.3791C30.1181 23.5335 30.1525 22.7059 30.3792 21.8964Z" fill="#255F6F"/>
<path fill-rule="evenodd" clip-rule="evenodd" d="M27.0691 25.8273C27.2867 25.7965 27.4936 25.8309 27.6898 25.9308C28.8318 27.1761 29.9352 28.452 31.0001 29.7584C31.6357 29.2914 32.2909 28.8776 32.9656 28.517C33.5451 28.6422 33.752 28.9869 33.5863 29.5515C32.7933 30.2067 32 30.8618 31.207 31.517C31.0001 31.655 30.7932 31.655 30.5863 31.517C29.1943 29.9191 27.884 28.264 26.6553 26.5515C26.7542 26.2819 26.8922 26.0406 27.0691 25.8273Z" fill="#185868"/>
<path fill-rule="evenodd" clip-rule="evenodd" d="M22.1035 30.1719C22.8652 30.1378 23.6239 30.1721 24.3794 30.2754C24.9312 30.6892 24.9312 31.103 24.3794 31.5168C23.6207 31.6548 22.8621 31.6548 22.1035 31.5168C21.8412 31.0692 21.8412 30.6209 22.1035 30.1719Z" fill="#255F6F"/>
<path fill-rule="evenodd" clip-rule="evenodd" d="M37.4138 30.1719C38.1755 30.1378 38.934 30.1721 39.6896 30.2754C39.9122 30.6325 39.9468 31.0117 39.7931 31.4133C39.0184 31.6463 38.2254 31.6808 37.4138 31.5168C36.8839 31.0707 36.8839 30.6224 37.4138 30.1719Z" fill="#255F6F"/>
<path fill-rule="evenodd" clip-rule="evenodd" d="M30.5863 36.9995C30.9773 36.9575 31.2876 37.0953 31.5173 37.4133C31.6814 38.225 31.6468 39.018 31.4139 39.7926C31.0123 39.9464 30.633 39.9118 30.2759 39.6892C30.0645 38.7315 30.1679 37.835 30.5863 36.9995Z" fill="#255F6F"/>
</g>
<defs>
<clipPath id="clip0_759_328">
<rect width="54" height="54" fill="white" transform="translate(4 4)"/>
</clipPath>
</defs>
</svg>
